<svg version="1.2" xmlns="http://www.w3.org/2000/svg" viewBox="0 0 1543 858" width="1543" height="858">
	<title>Banorte_(banking_and_financial_services_holding_company)_logo-svg</title>
	<style>
		.s0 { fill: #eb0029 } 
	</style>
	<g id="layer1">
		<g id="g6927">
			<path id="path6294" class="s0" d="m1536.5 170.2c-8.2-17.9-23.1-32.5-40.7-45-28.2-20.4-60.8-35.4-95.1-48.1-89.5-32.6-184.3-50.9-281.5-61.4-58.5-6.2-117.6-10.2-176.6-13.3-81.9-4-163.9-2.2-245.6 3.3-65.3 4.5-130.3 11.6-194.3 22.7-73.5 12.9-145.4 29.5-212.5 57.2-34 14.1-65.7 30.7-90.9 53.9-39.1 35.8-40 78.1-0.3 113.5 15.6 13.8 33.9 26.2 53.1 36.5 50.2 27.5 106.8 44 164.8 57.9 60.3 14.5 122.1 24.3 184.5 31.5 23.9 2.7 47.9 4.7 72.5 7.1 39.6-108 79-215.2 118.4-322.5 0.4 0.3 0.9 0.3 1.5 0.5 6.4 109.1 12.8 218.2 19.3 327.9 8.6 0.4 16.1 1.1 23.5 0.9 48.5-1 96.8-1.6 145.1-3.6 74.2-2.9 147.9-11 220.7-23.1 71.9-12.1 142.2-28 208.4-53.7 39.2-15.4 76.3-33.2 104.4-60.6 24.8-24.2 35.4-51 21.3-81.6z"/>
			<path id="path6298" class="s0" d="m647.9 400.5c-85.6 1.8-170.6 8.4-254.6 21.9-81.1 13.2-160.1 31.6-234.3 61.6-47.1 19.2-90.9 42.1-123.8 75.7-29.9 30.6-43.1 64.5-28.4 102.8 12.3 31.9 38.9 55.8 70.8 76.3 53.7 34.6 115.8 56.7 180.7 74.4 67.1 18.4 136.3 30.2 206.4 38.6 11 1.3 21.9 2.2 32.9 3.2 55.7-151.8 111-302.8 166.7-454.5-6.3 0-11.3 0-16.4 0z"/>
			<path id="path6302" class="s0" d="m1267.4 508c-60.8-32.2-128.1-52.6-197.8-68.6-66.8-15.2-135-25-204.1-31.4-16.7-1.6-33.3-2.6-51-3.8 8.9 151.7 17.7 302.2 26.5 453.3 5.3 0 9.5 0.4 13.6-0.2 42.3-5 84.9-9.3 126.8-15.6 76.4-11.6 150.5-29.2 220.7-56 50.7-19.4 97.8-42.7 134.3-77.6 44.4-42.4 49.6-91.6 13.7-136.6-20.9-26.5-50.2-46.3-82.7-63.5z"/>
		</g>
	</g>
</svg>